<svg id="eWb1cvApRx51" xmlns="http://www.w3.org/2000/svg"
     viewBox="-748.46 -81.898 168 168" shape-rendering="geometricPrecision" text-rendering="geometricPrecision">
    <g transform="matrix(1.94445 0 0 1.94445-752.990809-103.928858)">
        <path id="eWb1cvApRx53" d="M14.03,50.03l13.5,13.5l13.5-13.5-13.5-13.5-13.5,13.5m13.5-18l18,18-18,18-18-18l18-18"
              opacity="0" clip-rule="evenodd" fill="#39e991" fill-rule="evenodd"/>
        <path id="eWb1cvApRx54" d="M27.53,54.53l4.5-4.5-4.5-4.5-4.5,4.5l4.5,4.5m-9-4.5l9-9l9,9-9,9-9-9" opacity="0"
              clip-rule="evenodd" fill="#39e991" fill-rule="evenodd"/>
        <path id="eWb1cvApRx55" d="M68.03,72.53l-18-18-18,18l18,18l18-18m4.5,0l-22.5,22.5-22.5-22.5l22.5-22.5l22.5,22.5"
              opacity="0" clip-rule="evenodd" fill="#39e991" fill-rule="evenodd"/>
        <path id="eWb1cvApRx56" d="M59.03,72.53l-9-9-9,9l9,9l9-9m4.5,0l-13.5,13.5-13.5-13.5l13.5-13.5l13.5,13.5"
              opacity="0" clip-rule="evenodd" fill="#39e991" fill-rule="evenodd"/>
        <polyline id="eWb1cvApRx57" points="54.53,72.53 50.03,77.03 45.53,72.53 50.03,68.03 54.53,72.53" opacity="0"
                  clip-rule="evenodd" fill="#39e991" fill-rule="evenodd"/>
        <path id="eWb1cvApRx58" d="M41.03,27.53l9,9l9-9-9-9-9,9m-4.5,0l13.5-13.5l13.5,13.5-13.5,13.5-13.5-13.5"
              opacity="0" clip-rule="evenodd" fill="#39e991" fill-rule="evenodd"/>
        <polyline id="eWb1cvApRx59" points="45.53,27.53 50.03,23.03 54.53,27.53 50.03,32.03 45.53,27.53" opacity="0"
                  clip-rule="evenodd" fill="#39e991" fill-rule="evenodd"/>
        <path id="eWb1cvApRx510" d="M72.53,45.53l-4.5,4.5l4.5,4.5l4.5-4.5-4.5-4.5m9,4.5l-9,9-9-9l9-9l9,9" opacity="0"
              clip-rule="evenodd" fill="#39e991" fill-rule="evenodd"/>
    </g>
</svg>
